<mxfile host="app.diagrams.net" agent="Mozilla/5.0 (Windows NT 10.0; Win64; x64) AppleWebKit/537.36 (KHTML, like Gecko) Chrome/131.0.0.0 Safari/537.36 Edg/131.0.0.0" version="24.9.0">
  <diagram name="Page-1" id="olEoWfWnz1KqQ8K3OJyw">
    <mxGraphModel dx="1581" dy="948" grid="0" gridSize="10" guides="1" tooltips="1" connect="1" arrows="1" fold="1" page="0" pageScale="1" pageWidth="827" pageHeight="1169" math="0" shadow="0">
      <root>
        <mxCell id="0" />
        <mxCell id="1" parent="0" />
        <mxCell id="Qutux48cuLmUldRtaKGO-1" value="&lt;br&gt;&lt;div&gt;客户端&lt;/div&gt;&lt;div&gt;&lt;br&gt;&lt;/div&gt;" style="shape=ext;double=1;whiteSpace=wrap;html=1;aspect=fixed;align=left;verticalAlign=top;fontSize=15;" vertex="1" parent="1">
          <mxGeometry x="244" y="720" width="340" height="340" as="geometry" />
        </mxCell>
        <mxCell id="Qutux48cuLmUldRtaKGO-2" value="后端：swq" style="shape=ext;double=1;whiteSpace=wrap;html=1;aspect=fixed;align=left;verticalAlign=top;fontSize=22;" vertex="1" parent="1">
          <mxGeometry x="240" y="70" width="540" height="540" as="geometry" />
        </mxCell>
        <mxCell id="Qutux48cuLmUldRtaKGO-3" value="前端:yyn fyh" style="shape=ext;double=1;whiteSpace=wrap;html=1;aspect=fixed;align=left;verticalAlign=top;fontSize=19;" vertex="1" parent="1">
          <mxGeometry x="35" y="255" width="170" height="170" as="geometry" />
        </mxCell>
        <mxCell id="Qutux48cuLmUldRtaKGO-4" value="用户" style="ellipse;whiteSpace=wrap;html=1;aspect=fixed;" vertex="1" parent="1">
          <mxGeometry x="80" y="300" width="80" height="80" as="geometry" />
        </mxCell>
        <mxCell id="Qutux48cuLmUldRtaKGO-5" value="用户向系统提出问题" style="endArrow=classic;html=1;rounded=0;exitX=0.988;exitY=0.354;exitDx=0;exitDy=0;exitPerimeter=0;entryX=-0.021;entryY=0.346;entryDx=0;entryDy=0;entryPerimeter=0;" edge="1" parent="1" source="Qutux48cuLmUldRtaKGO-4" target="Qutux48cuLmUldRtaKGO-8">
          <mxGeometry relative="1" as="geometry">
            <mxPoint x="360" y="460" as="sourcePoint" />
            <mxPoint x="443.68000000000006" y="331.68000000000006" as="targetPoint" />
          </mxGeometry>
        </mxCell>
        <mxCell id="Qutux48cuLmUldRtaKGO-6" value="" style="endArrow=classic;html=1;rounded=0;exitX=-0.029;exitY=0.654;exitDx=0;exitDy=0;entryX=0.946;entryY=0.646;entryDx=0;entryDy=0;entryPerimeter=0;exitPerimeter=0;" edge="1" parent="1" source="Qutux48cuLmUldRtaKGO-8" target="Qutux48cuLmUldRtaKGO-4">
          <mxGeometry relative="1" as="geometry">
            <mxPoint x="442" y="356" as="sourcePoint" />
            <mxPoint x="160" y="470" as="targetPoint" />
          </mxGeometry>
        </mxCell>
        <mxCell id="Qutux48cuLmUldRtaKGO-7" value="系统向用户返回响应" style="edgeLabel;resizable=0;html=1;;align=center;verticalAlign=middle;" connectable="0" vertex="1" parent="Qutux48cuLmUldRtaKGO-6">
          <mxGeometry relative="1" as="geometry" />
        </mxCell>
        <mxCell id="Qutux48cuLmUldRtaKGO-8" value="服务器" style="whiteSpace=wrap;html=1;aspect=fixed;" vertex="1" parent="1">
          <mxGeometry x="440" y="300" width="80" height="80" as="geometry" />
        </mxCell>
        <mxCell id="Qutux48cuLmUldRtaKGO-9" value="客户端A" style="strokeWidth=2;html=1;shape=mxgraph.flowchart.decision;whiteSpace=wrap;" vertex="1" parent="1">
          <mxGeometry x="620" y="100" width="100" height="100" as="geometry" />
        </mxCell>
        <mxCell id="Qutux48cuLmUldRtaKGO-10" value="" style="endArrow=classic;html=1;rounded=0;entryX=1;entryY=0.25;entryDx=0;entryDy=0;exitX=0.357;exitY=0.87;exitDx=0;exitDy=0;exitPerimeter=0;" edge="1" parent="1" source="Qutux48cuLmUldRtaKGO-9" target="Qutux48cuLmUldRtaKGO-8">
          <mxGeometry relative="1" as="geometry">
            <mxPoint x="650" y="190" as="sourcePoint" />
            <mxPoint x="460" y="460" as="targetPoint" />
          </mxGeometry>
        </mxCell>
        <mxCell id="Qutux48cuLmUldRtaKGO-11" value="内容+准确率" style="edgeLabel;resizable=0;html=1;;align=left;verticalAlign=top;labelPosition=right;verticalLabelPosition=bottom;" connectable="0" vertex="1" parent="Qutux48cuLmUldRtaKGO-10">
          <mxGeometry relative="1" as="geometry" />
        </mxCell>
        <mxCell id="Qutux48cuLmUldRtaKGO-12" value="客户端B" style="strokeWidth=2;html=1;shape=mxgraph.flowchart.decision;whiteSpace=wrap;" vertex="1" parent="1">
          <mxGeometry x="620" y="490" width="100" height="100" as="geometry" />
        </mxCell>
        <mxCell id="Qutux48cuLmUldRtaKGO-13" value="" style="endArrow=classic;html=1;rounded=0;exitX=1;exitY=0.75;exitDx=0;exitDy=0;entryX=0.37;entryY=0.183;entryDx=0;entryDy=0;entryPerimeter=0;" edge="1" parent="1" source="Qutux48cuLmUldRtaKGO-8" target="Qutux48cuLmUldRtaKGO-12">
          <mxGeometry relative="1" as="geometry">
            <mxPoint x="360" y="460" as="sourcePoint" />
            <mxPoint x="460" y="460" as="targetPoint" />
          </mxGeometry>
        </mxCell>
        <mxCell id="Qutux48cuLmUldRtaKGO-14" value="服务端将问题广播给客户端" style="edgeLabel;resizable=0;html=1;;align=left;verticalAlign=bottom;labelPosition=right;verticalLabelPosition=top;" connectable="0" vertex="1" parent="Qutux48cuLmUldRtaKGO-13">
          <mxGeometry relative="1" as="geometry" />
        </mxCell>
        <mxCell id="Qutux48cuLmUldRtaKGO-15" value="" style="endArrow=classic;html=1;rounded=0;entryX=0.75;entryY=1;entryDx=0;entryDy=0;exitX=0.143;exitY=0.303;exitDx=0;exitDy=0;exitPerimeter=0;labelPosition=center;verticalLabelPosition=middle;align=center;verticalAlign=bottom;horizontal=1;fontFamily=Verdana;spacingTop=0;" edge="1" parent="1" source="Qutux48cuLmUldRtaKGO-12" target="Qutux48cuLmUldRtaKGO-8">
          <mxGeometry relative="1" as="geometry">
            <mxPoint x="360" y="460" as="sourcePoint" />
            <mxPoint x="510" y="510" as="targetPoint" />
          </mxGeometry>
        </mxCell>
        <mxCell id="Qutux48cuLmUldRtaKGO-16" value="内容+准确率" style="edgeLabel;resizable=0;html=1;;align=right;verticalAlign=top;labelPosition=left;verticalLabelPosition=bottom;" connectable="0" vertex="1" parent="Qutux48cuLmUldRtaKGO-15">
          <mxGeometry relative="1" as="geometry" />
        </mxCell>
        <mxCell id="Qutux48cuLmUldRtaKGO-17" value="" style="endArrow=classic;html=1;rounded=0;exitX=0.75;exitY=0;exitDx=0;exitDy=0;entryX=0.19;entryY=0.65;entryDx=0;entryDy=0;entryPerimeter=0;" edge="1" parent="1" source="Qutux48cuLmUldRtaKGO-8" target="Qutux48cuLmUldRtaKGO-9">
          <mxGeometry relative="1" as="geometry">
            <mxPoint x="638.2" y="170" as="sourcePoint" />
            <mxPoint x="489.99999999999994" y="298.02" as="targetPoint" />
          </mxGeometry>
        </mxCell>
        <mxCell id="Qutux48cuLmUldRtaKGO-18" value="服务端将问题广播给客户端" style="edgeLabel;resizable=0;html=1;;align=right;verticalAlign=bottom;labelPosition=left;verticalLabelPosition=top;" connectable="0" vertex="1" parent="Qutux48cuLmUldRtaKGO-17">
          <mxGeometry relative="1" as="geometry" />
        </mxCell>
        <mxCell id="Qutux48cuLmUldRtaKGO-19" value="" style="edgeStyle=orthogonalEdgeStyle;rounded=0;orthogonalLoop=1;jettySize=auto;html=1;" edge="1" parent="1" source="Qutux48cuLmUldRtaKGO-20" target="Qutux48cuLmUldRtaKGO-22">
          <mxGeometry relative="1" as="geometry" />
        </mxCell>
        <mxCell id="Qutux48cuLmUldRtaKGO-20" value="RAG：hyj swq" style="rounded=0;whiteSpace=wrap;html=1;" vertex="1" parent="1">
          <mxGeometry x="354" y="740" width="120" height="60" as="geometry" />
        </mxCell>
        <mxCell id="Qutux48cuLmUldRtaKGO-21" value="" style="edgeStyle=orthogonalEdgeStyle;rounded=0;orthogonalLoop=1;jettySize=auto;html=1;entryX=0.5;entryY=0;entryDx=0;entryDy=0;" edge="1" parent="1" source="Qutux48cuLmUldRtaKGO-22" target="Qutux48cuLmUldRtaKGO-23">
          <mxGeometry relative="1" as="geometry" />
        </mxCell>
        <mxCell id="Qutux48cuLmUldRtaKGO-22" value="大模型" style="shape=ext;double=1;rounded=0;whiteSpace=wrap;html=1;" vertex="1" parent="1">
          <mxGeometry x="354" y="840" width="120" height="60" as="geometry" />
        </mxCell>
        <mxCell id="Qutux48cuLmUldRtaKGO-23" value="数据库：hyj yyn fyh" style="shape=ext;double=1;rounded=0;whiteSpace=wrap;html=1;" vertex="1" parent="1">
          <mxGeometry x="354" y="940" width="120" height="60" as="geometry" />
        </mxCell>
      </root>
    </mxGraphModel>
  </diagram>
</mxfile>
